<?xml version="1.0" standalone="no"?>
<!DOCTYPE svg PUBLIC "-//W3C//DTD SVG 20010904//EN"
 "http://www.w3.org/TR/2001/REC-SVG-20010904/DTD/svg10.dtd">
<svg version="1.0" xmlns="http://www.w3.org/2000/svg"
 width="143.000000pt" height="143.000000pt" viewBox="0 0 143.000000 143.000000"
 preserveAspectRatio="xMidYMid meet">
<metadata>
Created by potrace 1.14, written by Peter Selinger 2001-2017
</metadata>
<g transform="translate(0.000000,143.000000) scale(0.100000,-0.100000)"
fill="#000000" stroke="none">
<path d="M1340 1149 c-107 -15 -239 -92 -310 -183 -14 -18 -14 -19 8 -7 57 30
149 22 177 -16 9 -12 16 -3 35 37 16 33 48 74 89 111 35 33 62 61 60 62 -2 2
-29 0 -59 -4z"/>
<path d="M490 1023 c-48 -8 -100 -24 -100 -31 0 -4 12 -9 28 -10 15 -1 61 -18
102 -38 58 -27 92 -54 158 -120 46 -46 82 -90 80 -96 -3 -7 -57 -29 -121 -51
-64 -21 -117 -42 -117 -45 0 -4 29 -24 64 -44 l65 -38 48 20 48 20 -35 -30
c-29 -25 -32 -31 -20 -39 11 -8 22 -3 41 19 30 33 43 37 149 44 41 3 91 10
110 16 57 16 125 64 160 114 38 52 65 63 111 47 18 -6 34 -10 35 -8 2 2 -1 19
-8 38 -33 100 -66 123 -179 121 -43 0 -83 -3 -89 -7 -5 -3 -29 7 -52 23 -24
15 -65 38 -93 49 -45 19 -69 26 -130 39 -28 7 -224 11 -255 7z"/>
<path d="M188 995 c-11 -52 -2 -178 17 -235 52 -158 204 -325 397 -439 29 -17
40 -21 23 -9 -59 45 -202 194 -243 255 -79 116 -139 258 -180 423 l-8 35 -6
-30z"/>
<path d="M99 810 c-1 -19 -3 -42 -3 -50 -4 -36 18 -118 44 -170 47 -93 166
-202 288 -264 24 -13 12 4 -51 67 -122 123 -195 234 -248 377 -26 69 -28 72
-30 40z"/>
<path d="M8 702 c-6 -41 16 -124 48 -178 24 -41 128 -144 166 -165 14 -7 16
-6 12 6 -4 8 -9 15 -13 15 -11 0 -97 114 -135 178 -20 35 -45 88 -55 119 -17
51 -19 53 -23 25z"/>
</g>
</svg>
